<svg xmlns="http://www.w3.org/2000/svg" xmlns:xlink="http://www.w3.org/1999/xlink" viewBox="0 0 125.01 101.2"><defs><style>.cls-1,.cls-9{fill:none;}.cls-1{clip-rule:evenodd;}.cls-2{isolation:isolate;}.cls-3{fill:#fff;}.cls-10,.cls-11,.cls-12,.cls-13,.cls-14,.cls-17,.cls-18,.cls-19,.cls-20,.cls-21,.cls-22,.cls-23,.cls-24,.cls-25,.cls-26,.cls-27,.cls-28,.cls-29,.cls-30,.cls-31,.cls-32,.cls-33,.cls-34,.cls-35,.cls-36,.cls-37,.cls-38,.cls-39,.cls-4,.cls-40,.cls-41,.cls-42,.cls-43,.cls-44,.cls-45,.cls-46,.cls-47,.cls-48,.cls-7,.cls-9{fill-rule:evenodd;}.cls-4{fill:url(#linear-gradient);}.cls-5{clip-path:url(#clip-path);}.cls-6{fill:url(#linear-gradient-2);}.cls-7{fill:#5382b3;}.cls-8{fill:#3573a7;}.cls-10{fill:#005e97;}.cls-11{fill:#226ba2;}.cls-12,.cls-15{fill:#00528c;}.cls-13{fill:#005891;}.cls-14{fill:url(#linear-gradient-3);}.cls-16,.cls-28,.cls-36{fill:#9ea3a6;}.cls-16,.cls-19,.cls-20,.cls-22{opacity:0.5;}.cls-16,.cls-19,.cls-20,.cls-22,.cls-24,.cls-25,.cls-26,.cls-27,.cls-28,.cls-30,.cls-31,.cls-47,.cls-48{mix-blend-mode:multiply;}.cls-17,.cls-30{fill:#7d9bc4;}.cls-18{fill:#7093be;}.cls-19,.cls-47,.cls-50{fill:#72787a;}.cls-20,.cls-37{fill:#81878a;}.cls-21{fill:url(#linear-gradient-4);}.cls-22{fill:url(#linear-gradient-5);}.cls-23{fill:#447aad;}.cls-24,.cls-41{fill:#acb1b4;}.cls-25{fill:url(#linear-gradient-6);}.cls-26,.cls-42{fill:#babec1;}.cls-27,.cls-44{fill:#d6d9db;}.cls-29{fill:#628ab9;}.cls-31,.cls-46{fill:#c8ccce;}.cls-32,.cls-49{fill:#ededed;}.cls-33{fill:#969c9f;}.cls-34{fill:#f8f9f9;}.cls-35,.cls-48{fill:#8f9598;}.cls-38{fill:#e4e6e7;}.cls-39{fill:#dddfe1;}.cls-40{fill:#cfd2d4;}.cls-43{fill:#f6f6f6;}.cls-45{fill:#a5aaad;}.cls-47{opacity:0.3;}</style><linearGradient id="linear-gradient" x1="62.49" y1="47.62" x2="62.49" y2="17.86" gradientUnits="userSpaceOnUse"><stop offset="0" stop-color="#00528c"/><stop offset="0.99" stop-color="#447aad"/></linearGradient><clipPath id="clip-path"><path class="cls-1" d="M76.76,47.61h-22l0,0,0,0-7-9.44,0,0a.13.13,0,0,1,0,0V18.5a.1.1,0,0,1,0,0l0,0,.55-.55,0,0H76.77l0,0,.55.55,0,0a.08.08,0,0,1,0,0V47a0,0,0,0,1,0,0l0,0-.54.55Z"/></clipPath><linearGradient id="linear-gradient-2" x1="48.22" y1="18.16" x2="76.76" y2="18.16" gradientUnits="userSpaceOnUse"><stop offset="0" stop-color="#005e97"/><stop offset="0.18" stop-color="#1f6ca2"/><stop offset="0.39" stop-color="#3c79ac"/><stop offset="0.6" stop-color="#5182b3"/><stop offset="0.81" stop-color="#5e88b8"/><stop offset="1" stop-color="#628ab9"/></linearGradient><linearGradient id="linear-gradient-3" x1="49.57" y1="33.04" x2="58.95" y2="33.04" gradientUnits="userSpaceOnUse"><stop offset="0.01" stop-color="#628ab9"/><stop offset="0.01" stop-color="#618ab9"/><stop offset="0.2" stop-color="#3e76a9"/><stop offset="0.4" stop-color="#23669c"/><stop offset="0.59" stop-color="#105b93"/><stop offset="0.79" stop-color="#04548e"/><stop offset="1" stop-color="#00528c"/></linearGradient><linearGradient id="linear-gradient-4" x1="67.18" y1="36.78" x2="75.37" y2="36.78" gradientUnits="userSpaceOnUse"><stop offset="0" stop-color="#628ab9"/><stop offset="0.18" stop-color="#4378ab"/><stop offset="0.39" stop-color="#26689d"/><stop offset="0.6" stop-color="#115c94"/><stop offset="0.81" stop-color="#04548e"/><stop offset="1" stop-color="#00528c"/></linearGradient><linearGradient id="linear-gradient-5" x1="67.18" y1="36.78" x2="75.37" y2="36.78" gradientUnits="userSpaceOnUse"><stop offset="0" stop-color="#628ab9"/><stop offset="0.23" stop-color="#6883a0"/><stop offset="0.5" stop-color="#6e7d8b"/><stop offset="0.75" stop-color="#71797e"/><stop offset="1" stop-color="#72787a"/></linearGradient><linearGradient id="linear-gradient-6" x1="60.53" y1="33.22" x2="63.39" y2="33.22" gradientUnits="userSpaceOnUse"><stop offset="0" stop-color="#72787a" stop-opacity="0.5"/><stop offset="0.26" stop-color="#71797e" stop-opacity="0.47"/><stop offset="0.51" stop-color="#6e7d8a" stop-opacity="0.37"/><stop offset="0.76" stop-color="#69829e" stop-opacity="0.21"/><stop offset="1" stop-color="#628ab9" stop-opacity="0"/></linearGradient></defs><g class="cls-2"><g id="Ebene_1" data-name="Ebene 1"><rect class="cls-3" width="125.01" height="101.2"/><path class="cls-4" d="M76.76,47.61h-22l0,0,0,0-7-9.44,0,0a.13.13,0,0,1,0,0V18.5a.1.1,0,0,1,0,0l0,0,.55-.55,0,0H76.77l0,0,.55.55,0,0a.08.08,0,0,1,0,0V47a0,0,0,0,1,0,0l0,0-.54.55Z"/><g class="cls-5"><rect class="cls-6" x="48.22" y="17.86" width="28.54" height="0.61"/><polygon class="cls-7" points="77.37 18.47 76.76 18.47 76.76 17.86 77.37 18.47"/><rect class="cls-8" x="76.76" y="18.47" width="0.61" height="28.54"/><path class="cls-9" d="M76.76,47.61h-22l0,0,0,0-7-9.44,0,0a.13.13,0,0,1,0,0V18.5a.1.1,0,0,1,0,0l0,0,.55-.55,0,0H76.77l0,0,.55.55,0,0a.08.08,0,0,1,0,0V47a0,0,0,0,1,0,0l0,0-.54.55Z"/><polygon class="cls-10" points="55.2 47.01 54.69 47.62 76.76 47.62 76.76 47.01 55.2 47.01"/><polygon class="cls-11" points="48.22 37.94 47.61 38.1 54.69 47.62 55.2 47.01 48.22 37.94"/><polygon class="cls-11" points="76.76 47.62 76.76 47.01 77.37 47.01 76.76 47.62"/><polygon class="cls-12" points="48.22 18.47 47.61 18.47 47.61 38.1 48.22 37.94 48.22 18.47"/><polygon class="cls-13" points="48.22 17.86 48.22 18.47 47.61 18.47 48.22 17.86"/></g><polygon class="cls-14" points="49.57 24.43 58.75 41.65 58.95 41.3 50.2 24.82 49.57 24.43"/><polygon class="cls-15" points="49.57 24.43 54.22 24.43 53.99 24.82 50.2 24.82 49.57 24.43"/><polygon class="cls-16" points="49.57 24.43 54.22 24.43 53.99 24.82 50.2 24.82 49.57 24.43"/><polygon class="cls-17" points="63 41.65 58.76 41.65 58.98 41.26 62.75 41.26 63 41.65"/><polygon class="cls-18" points="75.37 44.26 70.76 44.26 71.03 43.67 74.54 43.67 75.37 44.26"/><polyline class="cls-19" points="58.98 41.26 50.2 24.83 50.06 24.97 58.84 41.49 62.68 41.49 62.76 41.26 58.98 41.26"/><polygon class="cls-12" points="63 41.65 65.6 34.61 65.6 33.8 62.74 41.31 63 41.65"/><polygon class="cls-11" points="70.76 44.26 65.6 34.61 65.6 33.8 70.97 43.87 70.76 44.26"/><polygon class="cls-20" points="70.84 44.1 65.6 34.18 65.44 34.22 65.6 33.8 70.95 43.9 74.75 43.9 74.66 44.1 70.84 44.1"/><polygon class="cls-21" points="75.37 44.26 67.41 29.3 67.18 29.64 74.67 43.86 75.37 44.26"/><polygon class="cls-22" points="75.37 44.26 67.41 29.3 67.18 29.64 74.67 43.86 75.37 44.26"/><polygon class="cls-23" points="63.18 29.3 67.41 29.3 67.18 29.65 63.39 29.64 63.18 29.3"/><polygon class="cls-24" points="63.18 29.3 67.41 29.3 68.46 31.26 67.28 29.46 63.29 29.49 63.18 29.3"/><polygon class="cls-12" points="63.18 29.3 60.53 36.33 60.53 37.15 63.39 29.65 63.18 29.3"/><polygon class="cls-25" points="63.18 29.3 60.53 36.33 60.53 37.15 63.39 29.64 63.18 29.3"/><polygon class="cls-26" points="63.27 29.7 60.53 36.84 60.53 37.14 63.38 29.64 63.27 29.7"/><polygon class="cls-27" points="61.28 34.35 63.18 29.3 63.29 29.49 61.28 34.35"/><polygon class="cls-10" points="60.53 36.33 54.22 24.43 53.98 24.84 60.53 37.14 60.53 36.33"/><polygon class="cls-28" points="60.53 36.33 54.22 24.43 53.98 24.84 60.53 37.14 60.53 36.33"/><polygon class="cls-12" points="60.67 25.32 65.33 25.32 65.1 25.72 61.3 25.72 60.67 25.32"/><polygon class="cls-28" points="60.67 25.32 65.33 25.32 65.1 25.72 61.3 25.72 60.67 25.32"/><polygon class="cls-29" points="67.29 29.07 62.69 29.07 62.95 28.7 66.67 28.73 67.29 29.07"/><polygon class="cls-17" points="69.3 25.15 60.58 25.15 60.84 24.82 69 24.8 69.3 25.15"/><polygon class="cls-23" points="67.29 29.07 65.33 25.32 65.1 25.72 66.7 28.75 67.29 29.07"/><polygon class="cls-24" points="67.29 29.07 65.33 25.32 65.1 25.72 66.7 28.75 66.89 28.85 67.29 29.07"/><polygon class="cls-23" points="60.67 25.32 62.69 29.07 62.93 28.73 61.31 25.72 60.67 25.32"/><polygon class="cls-24" points="61.18 25.88 62.81 28.89 66.64 28.89 66.7 28.75 62.91 28.75 61.31 25.72 61.18 25.88"/><polygon class="cls-30" points="58.47 21.16 70.75 21.16 70.26 21.56 59.09 21.56 58.47 21.16"/><polygon class="cls-26" points="58.47 21.16 70.75 21.16 70.26 21.56 59.09 21.56 58.47 21.16"/><polygon class="cls-23" points="58.47 21.16 60.58 25.15 60.83 24.83 59.1 21.56 58.47 21.16"/><polygon class="cls-31" points="67.29 29.07 65.33 25.32 66.9 28.85 67.29 29.07"/><polygon class="cls-11" points="70.75 21.16 69.3 25.15 69 24.8 70.26 21.56 70.75 21.16"/><polygon class="cls-32" points="62.91 28.75 61.3 25.72 65.1 25.72 66.7 28.75 62.91 28.75"/><polygon class="cls-32" points="69.01 24.82 60.83 24.82 59.1 21.56 70.25 21.56 69.01 24.82"/><polygon class="cls-32" points="58.95 41.31 50.2 24.82 53.99 24.82 60.53 37.15 63.38 29.64 67.18 29.64 74.75 43.9 70.95 43.9 65.6 33.8 62.74 41.31 58.95 41.31"/><polygon class="cls-33" points="50.2 24.82 58.95 41.31 59.17 40.91 50.83 25.22 50.2 24.82"/><polygon class="cls-34" points="61.3 25.72 65.1 25.72 64.9 26.11 61.93 26.11 61.3 25.72"/><polygon class="cls-35" points="66.7 28.75 62.91 28.75 63.11 28.36 66.08 28.36 66.7 28.75"/><polygon class="cls-36" points="69.01 24.82 60.83 24.82 61.03 24.43 68.72 24.43 69.01 24.82"/><polygon class="cls-34" points="59.1 21.56 70.25 21.56 69.67 21.95 59.72 21.95 59.1 21.56"/><polygon class="cls-36" points="74.75 43.9 70.95 43.9 71.15 43.51 74.12 43.51 74.75 43.9"/><polygon class="cls-37" points="65.6 33.8 70.95 43.9 71.15 43.51 65.6 32.95 65.6 33.8"/><polygon class="cls-38" points="60.53 37.14 53.99 24.82 53.8 25.22 60.53 37.91 60.53 37.14"/><polygon class="cls-39" points="66.7 28.75 65.1 25.72 64.9 26.11 66.08 28.36 66.7 28.75"/><polygon class="cls-40" points="66.7 28.75 65.69 26.84 66.08 28.36 66.7 28.75"/><polygon class="cls-41" points="61.3 25.72 62.91 28.75 63.11 28.36 61.93 26.11 61.3 25.72"/><polygon class="cls-36" points="62.91 28.75 63.11 28.36 61.93 26.11 62.91 28.75"/><polygon class="cls-35" points="59.1 21.56 60.83 24.82 61.03 24.43 59.72 21.95 59.1 21.56"/><polygon class="cls-42" points="70.25 21.56 69.01 24.82 68.72 24.43 69.67 21.95 70.25 21.56"/><polygon class="cls-43" points="63.38 29.64 67.18 29.64 66.97 30.04 63.76 30.04 63.38 29.64"/><polygon class="cls-44" points="74.75 43.9 67.18 29.64 66.97 30.04 74.12 43.51 74.75 43.9"/><polygon class="cls-42" points="63.38 29.64 60.53 37.15 60.53 37.91 63.64 30.04 63.38 29.64"/><polygon class="cls-36" points="63.38 29.64 60.53 37.15 60.53 37.91 63.38 29.64"/><polygon class="cls-34" points="50.2 24.82 53.99 24.82 53.8 25.22 50.83 25.22 50.2 24.82"/><polygon class="cls-35" points="62.74 41.31 58.95 41.31 59.17 40.91 62.48 40.91 62.74 41.31"/><polygon class="cls-45" points="62.74 41.31 65.6 33.8 65.6 32.95 62.48 40.91 62.74 41.31"/><polygon class="cls-46" points="63.46 39.41 65.6 33.8 65.6 33.23 63.46 39.41"/><polygon class="cls-37" points="59.1 21.56 60.32 23.87 59.72 21.95 59.1 21.56"/><polygon class="cls-35" points="62.74 41.31 65.6 33.8 65.6 32.95 62.74 41.31"/><polygon class="cls-34" points="50.2 24.82 53.99 24.82 53.8 25.22 50.83 25.22 50.2 24.82"/><polygon class="cls-34" points="63.38 29.64 67.18 29.64 66.97 30.04 63.64 30.04 63.38 29.64"/><polygon class="cls-24" points="58.97 21.72 60.73 24.97 68.95 24.97 69.01 24.82 60.83 24.82 59.1 21.56 58.97 21.72"/><polygon class="cls-47" points="63 41.65 65.6 34.61 65.6 33.8 62.74 41.31 63 41.65"/><path class="cls-48" d="M74.93,20.33a1.94,1.94,0,0,1,0,2.73,2,2,0,0,1-1.37.56,1.93,1.93,0,0,1-1.92-1.93,2,2,0,0,1,.28-1,1.86,1.86,0,0,1,1.64-.93A1.89,1.89,0,0,1,74.93,20.33Zm-2.51.19a1.69,1.69,0,0,0-.49,1.16,1.59,1.59,0,0,0,.47,1.13,1.62,1.62,0,0,0,1.14.49,1.69,1.69,0,0,0,1.15-.47,1.58,1.58,0,0,0,.47-1.12,1.61,1.61,0,0,0-.45-1.16,1.64,1.64,0,0,0-2.29,0Zm1.17.05c.61,0,.91.21.91.62a.57.57,0,0,1-.47.57l.48,1h-.58l-.41-.88h-.25v.88h-.52V20.57Zm-.32,1h.25c.3,0,.44-.09.44-.31s-.15-.32-.46-.32h-.23Z"/><path class="cls-49" d="M74.22,21.66a.61.61,0,0,0,.45-.6q0-.66-1-.66h-.88v2.24h.61v-.88h.18l.4.85v0h.68l0-.07Zm-.78-.84h.18c.38,0,.43.15.43.28s0,.26-.4.26h-.21Z"/><path class="cls-49" d="M75.09,20.17a2,2,0,0,0-3.1.36,2,2,0,0,0-.29,1,2,2,0,0,0,.56,1.38,2,2,0,0,0,2.81,0,2,2,0,0,0,0-2.79Zm-1.42,3a1.55,1.55,0,0,1-1.11-.48,1.51,1.51,0,0,1-.46-1.1,1.61,1.61,0,0,1,.48-1.12,1.49,1.49,0,0,1,1.1-.45,1.51,1.51,0,0,1,1.12.48,1.54,1.54,0,0,1,.45,1.13,1.52,1.52,0,0,1-.46,1.08A1.63,1.63,0,0,1,73.67,23.13Z"/><path class="cls-12" d="M17.86,57.43h4.26L23.73,64l1.67-6.6H29L30.7,64l1.62-6.6h4.09L33,68.25H28.79L27.22,62l-1.57,6.26H21.43Z"/><path class="cls-12" d="M49.26,65.05c-.6,2.35-2.64,3.59-6,3.59-3.75,0-6.05-2.26-6.05-5.71,0-3.63,2.36-5.89,6.21-5.89s6.16,2.41,6.16,6.48v.27H41.53c0,1.38.75,2.16,2,2.16a1.55,1.55,0,0,0,1.61-.9Zm-3.9-3.42c-.08-1.35-.73-2-2-2s-1.81.73-1.87,2Z"/><path class="cls-12" d="M51.37,57.43h3.92V59a4.54,4.54,0,0,1,3.79-1.88,3.82,3.82,0,0,1,3.08,1.31c.83,1,.89,2.3.89,4.17v5.63h-4.3v-5.6c0-1.49-.28-2.16-1.46-2.16s-1.61.71-1.61,2.18v5.58H51.37Z"/><path class="cls-12" d="M69.76,69.41c.1.53.49.74,1.26.74,1.43,0,1.61-.61,1.61-2.27V67.3a4.12,4.12,0,0,1-3,1c-2.91,0-4.83-2.16-4.83-5.48,0-3.57,1.87-5.73,4.62-5.73A4.07,4.07,0,0,1,73,58.84V57.43h3.81v10c0,3.77-1.67,5.19-6,5.19-3.1,0-4.93-1.2-5.22-3.2Zm1-4.07c1.27,0,1.82-.84,1.82-2.55s-.68-2.47-1.82-2.47-1.73.82-1.73,2.45S69.62,65.34,70.8,65.34Z"/><path class="cls-12" d="M79.2,53.6h4.34V68.25H79.2Z"/><path class="cls-12" d="M91.53,57c3.81,0,6.12,2.2,6.12,5.79s-2.31,5.81-6.12,5.81-6.12-2.22-6.12-5.81S87.72,57,91.53,57Zm0,8.6c1.31,0,1.8-.89,1.8-2.81S92.84,60,91.53,60s-1.77.88-1.77,2.79S90.23,65.64,91.53,65.64Z"/><path class="cls-12" d="M99.42,57.43h4v2a3.14,3.14,0,0,1,3.36-2.27h.39v4.3a7.22,7.22,0,0,0-.88-.06c-1.73,0-2.53.76-2.53,2.43v4.44H99.42Z"/><path class="cls-50" d="M19.71,81.51c-1,0-1.24-.35-1.24-1.32v-2.5h-.61v-.87h.61V75.56H19.7v1.26h.71v.87H19.7v2.57c0,.24.08.29.4.29h.31v.93Z"/><path class="cls-50" d="M21.37,75.18H22.6v2.16A1.67,1.67,0,0,1,24,76.7a1.6,1.6,0,0,1,1.28.54,1.72,1.72,0,0,1,.25,1.12v3.09H24.27V79c0-.86,0-1.3-.72-1.3a.89.89,0,0,0-.95,1v2.74H21.37Z"/><path class="cls-50" d="M30.89,80.05a2.07,2.07,0,0,1-2.14,1.55,2.18,2.18,0,0,1-2.18-2.49c0-1.52.83-2.45,2.16-2.45S31,77.55,31,79.14c0,.1,0,.21,0,.32H27.85c0,.73.36,1.1,1,1.1a.81.81,0,0,0,.84-.51Zm-1.22-1.4c0-.63-.34-1-.92-1s-.85.33-.9,1Z"/><path class="cls-50" d="M34.7,75.18h1.24v1.13H34.7Zm0,1.64h1.24v4.63H34.7Z"/><path class="cls-50" d="M37.27,76.82h1.21v.55a1.7,1.7,0,0,1,1.4-.67c1,0,1.52.53,1.52,1.59v3.16H40.17v-2.8c0-.63-.19-.92-.72-.92a.9.9,0,0,0-1,1v2.74H37.27Z"/><path class="cls-50" d="M42.68,76.82h1.21v.55a1.72,1.72,0,0,1,1.41-.67c1,0,1.52.53,1.52,1.59v3.16H45.58v-2.8c0-.63-.18-.92-.71-.92a.89.89,0,0,0-.95,1v2.74H42.68Z"/><path class="cls-50" d="M50.21,76.66a2.47,2.47,0,1,1-2.34,2.47A2.22,2.22,0,0,1,50.21,76.66Zm0,3.91c.69,0,1.08-.52,1.08-1.44s-.39-1.43-1.08-1.43-1.09.51-1.09,1.43S49.52,80.57,50.21,80.57Z"/><path class="cls-50" d="M53.09,76.82h1.37l.95,3.32,1-3.32h1.3L56,81.45H54.75Z"/><path class="cls-50" d="M59.61,81.61a1.3,1.3,0,0,1-1.4-1.47c0-.9.48-1.3,1.56-1.47s1.29-.08,1.29-.52-.22-.53-.76-.53-.77.21-.77.58v.07H58.37v-.09c0-.94.7-1.52,1.89-1.52s2,.47,2,1.3v2.63c0,.34.06.55.27.65v.21H61.24a1.34,1.34,0,0,1-.14-.58A1.67,1.67,0,0,1,59.61,81.61ZM60,79.49c-.39.11-.58.26-.58.62a.54.54,0,0,0,.61.55,1,1,0,0,0,1.08-1v-.44A5.39,5.39,0,0,1,60,79.49Z"/><path class="cls-50" d="M64.91,81.51c-1,0-1.24-.35-1.24-1.32v-2.5h-.6v-.87h.6V75.56H64.9v1.26h.72v.87H64.9v2.57c0,.24.08.29.41.29h.31v.93Z"/><path class="cls-50" d="M66.58,75.18h1.23v1.13H66.58Zm0,1.64h1.23v4.63H66.58Z"/><path class="cls-50" d="M68.61,76.82H70l1,3.32,1-3.32H73.2l-1.66,4.63H70.28Z"/><path class="cls-50" d="M78.06,80.05a2.08,2.08,0,0,1-2.15,1.55c-1.31,0-2.17-.94-2.17-2.49s.82-2.45,2.16-2.45,2.22.89,2.22,2.48c0,.1,0,.21,0,.32H75c0,.73.35,1.1,1,1.1a.83.83,0,0,0,.84-.51Zm-1.22-1.4c0-.63-.34-1-.92-1s-.85.33-.9,1Z"/><path class="cls-50" d="M82.06,77.69H81.4v-.87h.66V76.4c0-.88.44-1.26,1.39-1.26l.59,0v1h-.32c-.34,0-.46,0-.46.35v.32H84v.87h-.77v3.76H82.06Z"/><path class="cls-50" d="M86,81.61a1.3,1.3,0,0,1-1.4-1.47c0-.9.49-1.3,1.57-1.47s1.29-.08,1.29-.52-.23-.53-.76-.53-.78.21-.78.58v.07H84.81v-.09c0-.94.69-1.52,1.89-1.52s2,.47,2,1.3v2.63c0,.34,0,.55.26.65v.21H87.67a1.34,1.34,0,0,1-.13-.58A1.69,1.69,0,0,1,86,81.61Zm.37-2.12c-.39.11-.58.26-.58.62a.53.53,0,0,0,.6.55,1,1,0,0,0,1.09-1v-.44A5.57,5.57,0,0,1,86.41,79.49Z"/><path class="cls-50" d="M90,76.82h1.18v.52a1.55,1.55,0,0,1,1.28-.65,1.38,1.38,0,0,1,1.28.68,1.59,1.59,0,0,1,1.32-.68,1.42,1.42,0,0,1,1.52,1.53v3.23H95.36v-3a.64.64,0,0,0-.69-.71.78.78,0,0,0-.79.88v2.81H92.67v-3a.64.64,0,0,0-.67-.72c-.47,0-.78.33-.78.89v2.8H90Z"/><path class="cls-50" d="M97.88,75.18h1.24v1.13H97.88Zm0,1.64h1.24v4.63H97.88Z"/><path class="cls-50" d="M100.49,75.18h1.23v6.27h-1.23Z"/><path class="cls-50" d="M103.24,82.3a1.62,1.62,0,0,0,.29,0c.49,0,.73-.23.73-.69a.35.35,0,0,0,0-.13l-1.66-4.68h1.36l1,3.34.95-3.34h1.3l-1.9,5.46a1.31,1.31,0,0,1-1.49,1.06,3.88,3.88,0,0,1-.52,0Z"/></g></g></svg>